{"title":"Star Trek 2009 BRrip 1080p Dual Audio {6Ch.} {Hindi-English} ~Sa","uid":8947107,"size":3231936495,"categoryP":"video","categoryS":"hd___movies","magnet":"?xt=urn:btih:c14d619245a20a3982b26a9a18cb48152a3e8a5b&amp;dn=Star+Trek+2009+BRrip+1080p+Dual+Audio+%7B6Ch.%7D+%7BHindi-English%7D+%7ESa&amp;tr=udp%3A%2F%2Ftracker.openbittorrent.com%3A80&amp;tr=udp%3A%2F%2Fopen.demonii.com%3A1337&amp;tr=udp%3A%2F%2Ftracker.coppersurfer.tk%3A6969&amp;tr=udp%3A%2F%2Fexodus.desync.com%3A6969","seeders":1,"leechers":0,"uploader":"SaNRiM","files":-1,"time":1379801462,"description":"Storyline\n\nOn the day of James Kirk's birth, his father dies on his ship in a last stand against a mysterious alien time-traveling vessel looking for Ambassador Spock, who, in this time, is also a child on Vulcan disdained by his neighbors for his half-human heritage. Twenty-five years later, Kirk has grown into a young troublemaker. Challenged by Captain Christopher Pike to realize his potential in Starfleet, he comes to annoy instructors like young Commander Spock. Suddenly, there is an emergency at Vulcan and the newly commissioned USS Enterprise is crewed with promising cadets like Nyota Uhura, Hikaru Sulu, Pavel Chekov and even Kirk himself, thanks to Leonard McCoy's medical trickery. Together, this crew will have an adventure in the final frontier where the old legend is altered forever as a new version of it begins.\n\n\n\nTorrent Info\n\nGeneral\n\nUnique ID : 171265165607091580500009526810424218754 (0x80D878992D9DBDCDB6DF21AC4BFD9482)\nComplete name : Star Trek 2009 BRrip 1080p Dual Audio {6Ch.} {Hindi-English} ~SaNRiM~.mkv\nFormat : Matroska\nFormat version : Version 4 / Version 2\nFile size : 3.01 GiB\nDuration : 2h 6mn\nOverall bit rate : 3 397 Kbps\nEncoded date : UTC 2013-09-21 19:06:37\nWriting application : mkvmerge v6.4.1 ('Omega Point') built on Sep 16 2013 22:05:10\nWriting library : libebml v1.3.0 + libmatroska v1.4.1\n\n\nVideo\n\nID : 1\nFormat : AVC\nFormat/Info : Advanced Video Codec\nFormat profile : &lt;a class=&quot;__cf_email__&quot; href=&quot;/cdn-cgi/l/email-protection&quot; data-cfemail=&quot;9fd2fef6f1dfd3abb1af&quot;&gt;[email&amp;#160;protected]&lt;/a&gt;&lt;script cf-hash='f9e31' type=&quot;text/javascript&quot;&gt;\n/* &lt;![CDATA[ */!function(){try{var t=&quot;currentScript&quot;in document?document.currentScript:function(){for(var t=document.getElementsByTagName(&quot;script&quot;),e=t.length;e--;)if(t[e].getAttribute(&quot;cf-hash&quot;))return t[e]}();if(t&amp;&amp;t.previousSibling){var e,r,n,i,c=t.previousSibling,a=c.getAttribute(&quot;data-cfemail&quot;);if(a){for(e=&quot;&quot;,r=parseInt(a.substr(0,2),16),n=2;a.length-n;n+=2)i=parseInt(a.substr(n,2),16)^r,e+=String.fromCharCode(i);e=document.createTextNode(e),c.parentNode.replaceChild(e,c)}}}catch(u){}}();/* ]]&gt; */&lt;/script&gt;\nFormat settings, CABAC : Yes\nFormat settings, ReFrames : 4 frames\nCodec ID : V_MPEG4/ISO/AVC\nDuration : 2h 6mn\nBit rate : 2 500 Kbps\nWidth : 1 920 pixels\nHeight : 800 pixels\nDisplay aspect ratio : 2.40:1\nFrame rate mode : Constant\nFrame rate : 23.976 fps\nColor space : YUV\nChroma subsampling : 4:2:0\nBit depth : 8 bits\nScan type : Progressive\nBits/(Pixel*Frame) : 0.068\nStream size : 2.16 GiB (72%)\nTitle : ~SaNRiM~\nWriting library : x264 core 120\nLanguage : English\nDefault : Yes\nForced : No\nColor primaries : BT.709\nTransfer characteristics : BT.709\nMatrix coefficients : BT.709\n\n\nAudio #1\n\nID : 2\nFormat : AC-3\nFormat/Info : Audio Coding 3\nMode extension : CM (complete main)\nFormat settings, Endianness : Big\nCodec ID : A_AC3\nDuration : 2h 6mn\nBit rate mode : Constant\nBit rate : 256 Kbps\nChannel(s) : 6 channels\nChannel positions : Front: L C R, Side: L R, LFE\nSampling rate : 44.1 KHz\nBit depth : 16 bits\nCompression mode : Lossy\nDelay relative to video : 1s 700ms\nStream size : 232 MiB (8%)\nTitle : ~SaNRiM~\nLanguage : Hindi\nDefault : No\nForced : No\n\n\nAudio #2\n\nID : 3\nFormat : AC-3\nFormat/Info : Audio Coding 3\nMode extension : CM (complete main)\nFormat settings, Endianness : Big\nCodec ID : A_AC3\nDuration : 2h 6mn\nBit rate mode : Constant\nBit rate : 640 Kbps\nChannel(s) : 6 channels\nChannel positions : Front: L C R, Side: L R, LFE\nSampling rate : 48.0 KHz\nBit depth : 16 bits\nCompression mode : Lossy\nStream size : 581 MiB (19%)\nTitle : ~SaNRiM~\nLanguage : English\nDefault : No\nForced : No\n\n\n\nScreens\n &lt;a href=&quot;\nhttp://cdn.piczend.com/images/T7vQTUPl/1379793407_vlcsnap-2013-09-22-01h09m15s178.png&quot; rel=&quot;nofollow&quot; target=&quot;_NEW&quot;&gt;\nhttp://cdn.piczend.com/images/T7vQTUPl/1379793407_vlcsnap-2013-09-22-01h09m15s178.png&lt;/a&gt; &lt;a href=&quot;\nhttp://cdn.piczend.com/images/PPeHizdD/1379793393_vlcsnap-2013-09-22-01h09m21s243.png&quot; rel=&quot;nofollow&quot; target=&quot;_NEW&quot;&gt;\nhttp://cdn.piczend.com/images/PPeHizdD/1379793393_vlcsnap-2013-09-22-01h09m21s243.png&lt;/a&gt; &lt;a href=&quot;\nhttp://cdn.piczend.com/images/9dyfdEu1/1379793375_vlcsnap-2013-09-22-01h09m32s53.png&quot; rel=&quot;nofollow&quot; target=&quot;_NEW&quot;&gt;\nhttp://cdn.piczend.com/images/9dyfdEu1/1379793375_vlcsnap-2013-09-22-01h09m32s53.png&lt;/a&gt; &lt;a href=&quot;\nhttp://cdn.piczend.com/images/jT6K0zTq/1379793388_vlcsnap-2013-09-22-01h09m44s218.png&quot; rel=&quot;nofollow&quot; target=&quot;_NEW&quot;&gt;\nhttp://cdn.piczend.com/images/jT6K0zTq/1379793388_vlcsnap-2013-09-22-01h09m44s218.png&lt;/a&gt; &lt;a href=&quot;\nhttp://cdn.piczend.com/images/TVeaChIo/1379793367_vlcsnap-2013-09-22-01h10m00s119.png&quot; rel=&quot;nofollow&quot; target=&quot;_NEW&quot;&gt;\nhttp://cdn.piczend.com/images/TVeaChIo/1379793367_vlcsnap-2013-09-22-01h10m00s119.png&lt;/a&gt; &lt;a href=&quot;\nhttp://cdn.piczend.com/images/S0Ovp75p/1379793421_vlcsnap-2013-09-22-01h10m04s165.png&quot; rel=&quot;nofollow&quot; target=&quot;_NEW&quot;&gt;\nhttp://cdn.piczend.com/images/S0Ovp75p/1379793421_vlcsnap-2013-09-22-01h10m04s165.png&lt;/a&gt; &lt;a href=&quot;\nhttp://cdn.piczend.com/images/S6gyUm10/1379793364_vlcsnap-2013-09-22-01h10m13s0.png&quot; rel=&quot;nofollow&quot; target=&quot;_NEW&quot;&gt;\nhttp://cdn.piczend.com/images/S6gyUm10/1379793364_vlcsnap-2013-09-22-01h10m13s0.png&lt;/a&gt; &lt;a href=&quot;\nhttp://cdn.piczend.com/images/Tfws1kfR/1379793407_vlcsnap-2013-09-22-01h10m26s120.png&quot; rel=&quot;nofollow&quot; target=&quot;_NEW&quot;&gt;\nhttp://cdn.piczend.com/images/Tfws1kfR/1379793407_vlcsnap-2013-09-22-01h10m26s120.png&lt;/a&gt; &lt;a href=&quot;\nhttp://cdn.piczend.com/images/3os7DkS1/1379793403_vlcsnap-2013-09-22-01h10m47s84.png&quot; rel=&quot;nofollow&quot; target=&quot;_NEW&quot;&gt;\nhttp://cdn.piczend.com/images/3os7DkS1/1379793403_vlcsnap-2013-09-22-01h10m47s84.png&lt;/a&gt; &lt;a href=&quot;\nhttp://cdn.piczend.com/images/eweqBJv2/1379793362_vlcsnap-2013-09-22-01h11m01s217.png&quot; rel=&quot;nofollow&quot; target=&quot;_NEW&quot;&gt;\nhttp://cdn.piczend.com/images/eweqBJv2/1379793362_vlcsnap-2013-09-22-01h11m01s217.png&lt;/a&gt; &lt;a href=&quot;\nhttp://cdn.piczend.com/images/NSSCw6g9/1379793418_vlcsnap-2013-09-22-01h11m08s31.png&quot; rel=&quot;nofollow&quot; target=&quot;_NEW&quot;&gt;\nhttp://cdn.piczend.com/images/NSSCw6g9/1379793418_vlcsnap-2013-09-22-01h11m08s31.png&lt;/a&gt; &lt;a href=&quot;\nhttp://cdn.piczend.com/images/veE25PSc/1379793421_vlcsnap-2013-09-22-01h11m32s12.png&quot; rel=&quot;nofollow&quot; target=&quot;_NEW&quot;&gt;\nhttp://cdn.piczend.com/images/veE25PSc/1379793421_vlcsnap-2013-09-22-01h11m32s12.png&lt;/a&gt; &lt;a href=&quot;\nhttp://cdn.piczend.com/images/2gqAMHd9/1379793421_vlcsnap-2013-09-22-01h12m01s51.png&quot; rel=&quot;nofollow&quot; target=&quot;_NEW&quot;&gt;\nhttp://cdn.piczend.com/images/2gqAMHd9/1379793421_vlcsnap-2013-09-22-01h12m01s51.png&lt;/a&gt; &lt;a href=&quot;\nhttp://cdn.piczend.com/images/bPaRL1M9/1379793377_vlcsnap-2013-09-22-01h13m21s81.png&quot; rel=&quot;nofollow&quot; target=&quot;_NEW&quot;&gt;\nhttp://cdn.piczend.com/images/bPaRL1M9/1379793377_vlcsnap-2013-09-22-01h13m21s81.png&lt;/a&gt; &lt;a href=&quot;\nhttp://cdn.piczend.com/images/qVZ5gnVO/1379793407_vlcsnap-2013-09-22-01h13m23s105.png&quot; rel=&quot;nofollow&quot; target=&quot;_NEW&quot;&gt;\nhttp://cdn.piczend.com/images/qVZ5gnVO/1379793407_vlcsnap-2013-09-22-01h13m23s105.png&lt;/a&gt;\n\n\n\n                    If you like my work please comment\n                          Any request? Just PM me\n                       Please seed long after download\n                         Thank you &amp; enjoy the best\n                                 ~SaNRiM~ \t\n\t\t\t\t","torrent":{"xt":"urn:btih:c14d619245a20a3982b26a9a18cb48152a3e8a5b","amp;dn":"Star+Trek+2009+BRrip+1080p+Dual+Audio+%7B6Ch.%7D+%7BHindi-English%7D+%7ESa","amp;tr":["udp%3A%2F%2Ftracker.openbittorrent.com%3A80","udp%3A%2F%2Fopen.demonii.com%3A1337","udp%3A%2F%2Ftracker.coppersurfer.tk%3A6969","udp%3A%2F%2Fexodus.desync.com%3A6969"],"infoHash":"c14d619245a20a3982b26a9a18cb48152a3e8a5b","infoHashBuffer":{"type":"Buffer","data":[193,77,97,146,69,162,10,57,130,178,106,154,24,203,72,21,42,62,138,91]},"announce":[],"urlList":[]}}